<svg xmlns="http://www.w3.org/2000/svg" xmlns:xlink="http://www.w3.org/1999/xlink" viewBox="0,0,256,256" width="48px" height="48px" fill-rule="none"><g fill="none" fill-rule="none" stroke="none" stroke-width="1" stroke-linecap="butt" stroke-linejoin="miter" stroke-miterlimit="10" stroke-dasharray="" stroke-dashoffset="0" font-family="none" font-weight="none" font-size="none" text-anchor="none" style="mix-blend-mode: normal"><g transform="scale(5.33333,5.33333)"><path d="M31.003,7.001l-0.001,-5.5c0,-0.828 0.672,-1.5 1.5,-1.5c0.828,0 1.5,0.672 1.5,1.5v5.5z" fill="#c5a059" fill-rule="nonzero"></path><path d="M14.964,47.999h18.073c0.533,0 0.965,-0.432 0.965,-0.965v-42.07c0,-0.533 -0.432,-0.965 -0.965,-0.965h-18.073c-0.533,0 -0.965,0.432 -0.965,0.965v42.07c0,0.533 0.432,0.965 0.965,0.965z" fill="#c5a059" fill-rule="nonzero"></path><path d="M17.739,29.001h12.524c0.962,0 1.741,-0.78 1.741,-1.741v-16.517c0,-0.962 -0.78,-1.741 -1.741,-1.741h-12.524c-0.962,0 -1.741,0.78 -1.741,1.741v16.517c-0.001,0.962 0.779,1.741 1.741,1.741z" fill="#ffffff" fill-rule="evenodd"></path><path d="M12.001,22.001c3.643,-0.7 5.865,-2.448 7,-5c1.135,2.552 3.357,4.3 7,5z" fill="#9b2310" fill-rule="evenodd"></path><path d="M12.001,22.001c4.273,0.867 6.476,1 11,1c5.076,0 11.712,-1.939 14,-6l-9,-4c-3.962,5.138 -6.138,9 -16,9z" fill="#e60023" fill-rule="evenodd"></path></g></g></svg>